<svg width="20" height="20" viewBox="0 0 20 20" fill="none" xmlns="http://www.w3.org/2000/svg">
<path d="M9.66184 7.61905V4.7619H6.76328V2.85714H9.66184V0H11.5942V2.85714H14.4928V4.7619H11.5942V7.61905H9.66184ZM5.7971 20C5.2657 20 4.81079 19.8135 4.43237 19.4405C4.05395 19.0675 3.86473 18.619 3.86473 18.0952C3.86473 17.5714 4.05395 17.123 4.43237 16.75C4.81079 16.377 5.2657 16.1905 5.7971 16.1905C6.3285 16.1905 6.78341 16.377 7.16184 16.75C7.54026 17.123 7.72947 17.5714 7.72947 18.0952C7.72947 18.619 7.54026 19.0675 7.16184 19.4405C6.78341 19.8135 6.3285 20 5.7971 20ZM15.4589 20C14.9275 20 14.4726 19.8135 14.0942 19.4405C13.7158 19.0675 13.5266 18.619 13.5266 18.0952C13.5266 17.5714 13.7158 17.123 14.0942 16.75C14.4726 16.377 14.9275 16.1905 15.4589 16.1905C15.9903 16.1905 16.4452 16.377 16.8237 16.75C17.2021 17.123 17.3913 17.5714 17.3913 18.0952C17.3913 18.619 17.2021 19.0675 16.8237 19.4405C16.4452 19.8135 15.9903 20 15.4589 20ZM0 2.85714V0.952381H3.16425L7.27053 9.52381H14.0338L17.8019 2.85714H20L15.7488 10.4286C15.5717 10.746 15.3341 10.9921 15.0362 11.1667C14.7383 11.3413 14.4122 11.4286 14.058 11.4286H6.8599L5.7971 13.3333H17.3913V15.2381H5.7971C5.07246 15.2381 4.52093 14.9286 4.14251 14.3095C3.76409 13.6905 3.75201 13.0635 4.10628 12.4286L5.41063 10.0952L1.93237 2.85714H0Z" fill="#DC3333"/>
</svg>
